HIERARCHY
ROOT joint_0
{
	OFFSET 0.000000 0.000000 0.000000
	CHANNELS 6 Xposition Yposition Zposition Zrotation Yrotation Xrotation 
	JOINT joint_1
	{
		OFFSET 0.511002 1.944000 108.288940
		CHANNELS 3 Zrotation Yrotation Xrotation
		JOINT joint_2
		{
			OFFSET -9.074005 1.512993 98.440063
			CHANNELS 3 Zrotation Yrotation Xrotation
			JOINT joint_3
			{
				OFFSET -8.590996 1.815002 98.366943
				CHANNELS 3 Zrotation Yrotation Xrotation
				JOINT joint_4
				{
					OFFSET 2.489998 3.531998 136.462036
					CHANNELS 3 Zrotation Yrotation Xrotation
					JOINT joint_5
					{
						OFFSET 22.708000 2.955002 80.357056
						CHANNELS 3 Zrotation Yrotation Xrotation
						End Site
						{
							OFFSET 0.000000 0.000000 0.000000
						}
					}
				}
				JOINT joint_6
				{
					OFFSET 2.860001 -27.684998 77.234009
					CHANNELS 3 Zrotation Yrotation Xrotation
					JOINT joint_7
					{
						OFFSET 5.449997 -131.244003 -18.851929
						CHANNELS 3 Zrotation Yrotation Xrotation
						JOINT joint_8
						{
							OFFSET 35.757000 -24.661995 -264.074097
							CHANNELS 3 Zrotation Yrotation Xrotation
							JOINT joint_9
							{
								OFFSET 49.392001 -1.747002 -239.960938
								CHANNELS 3 Zrotation Yrotation Xrotation
								End Site
								{
									OFFSET 0.000000 0.000000 0.000000
								}
							}
						}
					}
				}
				JOINT joint_10
				{
					OFFSET -0.127998 31.625000 75.753052
					CHANNELS 3 Zrotation Yrotation Xrotation
					JOINT joint_11
					{
						OFFSET -5.618004 131.132996 -19.557007
						CHANNELS 3 Zrotation Yrotation Xrotation
						JOINT joint_12
						{
							OFFSET 46.488998 30.127991 -261.826050
							CHANNELS 3 Zrotation Yrotation Xrotation
							JOINT joint_13
							{
								OFFSET 66.021003 0.474030 -235.934937
								CHANNELS 3 Zrotation Yrotation Xrotation
								End Site
								{
									OFFSET 0.000000 0.000000 0.000000
								}
							}
						}
					}
				}
			}
		}
	}
	JOINT joint_14
	{
		OFFSET 15.887001 -78.871004 -94.561035
		CHANNELS 3 Zrotation Yrotation Xrotation
		JOINT joint_15
		{
			OFFSET -4.133003 6.714001 -473.615967
			CHANNELS 3 Zrotation Yrotation Xrotation
			JOINT joint_16
			{
				OFFSET -19.541000 5.340000 -399.613007
				CHANNELS 3 Zrotation Yrotation Xrotation
				JOINT joint_17
				{
					OFFSET 164.317001 41.657999 -73.195000
					CHANNELS 3 Zrotation Yrotation Xrotation
					End Site
					{
						OFFSET 0.000000 0.000000 0.000000
					}
				}
			}
		}
	}
	JOINT joint_18
	{
		OFFSET 6.513000 77.960991 -96.406982
		CHANNELS 3 Zrotation Yrotation Xrotation
		JOINT joint_19
		{
			OFFSET -10.660004 -8.518997 -473.485016
			CHANNELS 3 Zrotation Yrotation Xrotation
			JOINT joint_20
			{
				OFFSET -36.967995 -11.098999 -398.260010
				CHANNELS 3 Zrotation Yrotation Xrotation
				JOINT joint_21
				{
					OFFSET 166.067997 30.363998 -74.785000
					CHANNELS 3 Zrotation Yrotation Xrotation
					End Site
					{
						OFFSET 0.000000 0.000000 0.000000
					}
				}
			}
		}
	}
}
MOTION
Frames: 10
Frame Time: 0.016667
1174.447998 92.675003 1046.796021 -2.652614 7.676158 -3.094214 2.408090 14.839180 9.235271 1.764794 -10.377371 -2.750508 2.231179 4.948845 0.310065 -1.246507 10.936144 2.126652 0.000000 0.000000 0.000000 6.593692 2.576556 -2.587063 23.379251 -7.200226 -25.912866 3.083117 -27.879874 -8.110335 0.000000 0.000000 0.000000 -12.138526 10.496676 -0.663071 -11.875989 -0.359497 0.999064 8.223411 7.927958 10.669762 0.000000 0.000000 0.000000 4.625001 -7.446344 2.037095 -3.460471 30.273179 -1.925771 -6.850321 -7.960767 -1.459759 0.000000 0.000000 0.000000 -9.266527 -34.571876 16.168904 -2.892494 54.924089 -14.897911 2.613562 -7.141756 2.323372 0.000000 0.000000 0.000000 
1210.439941 95.336998 1056.891968 -2.657221 7.773518 -2.904938 2.816945 13.936713 8.861355 2.244341 -10.063462 -2.677525 2.706336 4.947085 0.129965 -1.316154 10.382435 2.275208 0.000000 0.000000 0.000000 6.211113 2.627402 -2.975523 24.813968 -7.987418 -24.191533 3.777479 -30.337481 -7.544590 0.000000 0.000000 0.000000 -11.868096 12.162778 -0.615378 -11.874414 1.160105 0.425814 8.286791 7.499946 11.669240 0.000000 0.000000 0.000000 5.128159 -5.054036 1.449013 -3.041886 27.894041 -1.364213 -5.964361 -2.303640 -2.367812 0.000000 0.000000 0.000000 -9.138987 -35.397644 15.364915 -1.954215 46.387016 -12.819121 4.725713 -6.744285 3.140246 0.000000 0.000000 0.000000 
1246.808960 97.908997 1064.869019 -2.727646 7.892480 -2.775489 3.223580 12.930701 8.487352 2.735045 -9.747446 -2.594157 3.192642 4.958486 -0.014408 -1.347871 9.780045 2.340510 0.000000 0.000000 0.000000 5.804116 2.626423 -3.157802 26.158993 -8.679335 -22.927633 4.595463 -32.750509 -6.775068 0.000000 0.000000 0.000000 -11.655108 13.910306 -0.493039 -11.812166 2.903773 0.349357 8.112126 6.404801 12.008417 0.000000 0.000000 0.000000 5.568453 -2.937026 1.013739 -2.681319 26.006234 -0.937556 -5.241181 2.902234 -3.244961 0.000000 0.000000 0.000000 -8.988045 -35.493946 14.544304 -1.123822 37.424317 -10.661519 6.016370 -6.205053 3.577163 0.000000 0.000000 0.000000 
1283.723022 100.161003 1070.623047 -2.493197 8.270335 -2.593673 3.488201 11.393373 7.949829 3.133509 -9.333554 -2.449279 3.582978 5.031017 -0.063619 -1.340529 9.102000 2.317630 0.000000 0.000000 0.000000 5.305790 2.625510 -3.050468 27.363186 -9.141788 -22.252157 5.618891 -35.396850 -5.737184 0.000000 0.000000 0.000000 -11.592141 15.688989 -0.408070 -11.645853 4.912555 1.007778 7.664581 4.916462 11.257411 0.000000 0.000000 0.000000 5.781423 -1.325821 0.705738 -2.525345 24.851009 -0.716085 -4.878210 6.972515 -4.023937 0.000000 0.000000 0.000000 -9.131674 -35.186318 13.671649 -0.669834 27.959169 -8.695384 6.211103 -7.178050 3.854628 0.000000 0.000000 0.000000 
1321.014038 102.323997 1074.256958 -2.296923 8.731084 -2.470692 3.730864 9.595569 7.377259 3.539648 -8.767862 -2.261948 3.982223 5.037651 -0.080620 -1.303811 8.379025 2.227567 0.000000 0.000000 0.000000 4.717063 2.621524 -2.823205 28.497038 -9.486237 -21.875967 6.757653 -38.218373 -4.546310 0.000000 0.000000 0.000000 -11.591046 17.539638 -0.243140 -11.477038 7.116436 2.138035 6.981741 2.832083 9.922913 0.000000 0.000000 0.000000 5.900126 -0.073358 0.535613 -2.445494 24.365966 -0.612622 -4.673296 10.303864 -4.705389 0.000000 0.000000 0.000000 -9.355890 -34.224925 12.841807 -0.458824 17.350033 -6.540877 5.883505 -7.964609 3.876446 0.000000 0.000000 0.000000 
1358.161987 104.612000 1074.890015 -3.058677 8.693852 -2.756187 4.275674 8.579767 7.181942 4.176864 -8.336112 -2.196110 4.639844 4.858040 -0.131168 -1.241817 7.721925 2.078708 0.000000 0.000000 0.000000 4.231565 2.518139 -2.637990 29.615485 -9.900294 -21.569000 7.854199 -40.821915 -3.369709 0.000000 0.000000 0.000000 -11.469484 19.322614 -0.093644 -11.282740 9.287404 3.478896 6.409304 0.766732 9.038644 0.000000 0.000000 0.000000 6.288042 1.396368 0.666119 -2.094144 24.272062 -0.592840 -4.226284 13.444242 -5.216100 0.000000 0.000000 0.000000 -9.133840 -32.544529 12.581339 -0.249107 7.716587 -4.388948 5.611553 -6.312194 3.431891 0.000000 0.000000 0.000000 
1395.078003 107.098000 1072.126953 -4.017441 8.417201 -3.323756 4.768675 7.871821 7.360722 4.738150 -7.985423 -2.269009 5.253584 4.620584 -0.130592 -1.162278 7.141916 1.887389 0.000000 0.000000 0.000000 3.909344 2.257993 -2.613391 30.821075 -10.461514 -21.292245 8.948380 -43.115645 -2.160423 0.000000 0.000000 0.000000 -11.206876 21.057413 0.018444 -11.030709 11.391699 4.794858 6.075749 -1.281457 9.025511 0.000000 0.000000 0.000000 6.728893 2.999707 0.974973 -1.686830 24.310373 -0.473249 -3.672015 16.621412 -5.674817 0.000000 0.000000 0.000000 -8.708800 -31.445984 12.917099 -0.097496 1.607259 -3.059354 5.434823 -5.411989 3.177678 0.000000 0.000000 0.000000 
1431.852051 109.709000 1066.363037 -4.361727 8.285878 -3.785524 4.917665 6.753788 7.440083 5.001425 -7.434993 -2.282417 5.569596 4.385333 -0.031174 -1.063477 6.607373 1.648377 0.000000 0.000000 0.000000 3.685932 1.914919 -2.667446 32.002024 -11.062608 -21.089064 10.022897 -45.338340 -0.959438 0.000000 0.000000 0.000000 -10.919830 22.731792 0.112018 -10.733193 13.448318 6.156150 5.890789 -3.364735 9.516678 0.000000 0.000000 0.000000 6.938890 4.373667 1.145698 -1.507877 24.698399 -0.118188 -3.253211 19.492001 -6.131767 0.000000 0.000000 0.000000 -8.483254 -31.246951 13.325175 -0.064403 -1.780057 -2.584807 5.255678 -6.520271 3.322555 0.000000 0.000000 0.000000 
1468.239014 112.452003 1057.894043 -4.586445 7.969990 -4.119831 5.015198 5.822782 7.411621 5.189700 -6.785246 -2.249903 5.808329 4.108753 0.064815 -0.950820 6.178797 1.372349 0.000000 0.000000 0.000000 3.555643 1.613044 -2.721680 32.932210 -11.634597 -20.811586 10.834572 -47.471610 -0.053309 0.000000 0.000000 0.000000 -10.618854 24.138470 0.277869 -10.409931 15.245045 7.618790 5.907209 -4.931974 10.340976 0.000000 0.000000 0.000000 7.071715 5.654922 1.036533 -1.418202 25.841067 0.480029 -2.831602 21.712076 -6.424221 0.000000 0.000000 0.000000 -8.354705 -31.372578 13.589621 -0.028875 -2.534894 -2.542882 5.239272 -6.961492 3.403308 0.000000 0.000000 0.000000 
1504.586060 115.278999 1045.827026 -5.020887 7.167030 -4.438020 5.269733 5.541219 7.432293 5.459839 -6.237991 -2.245487 6.126183 3.860992 0.147012 -0.833659 5.883810 1.080355 0.000000 0.000000 0.000000 3.368491 1.429980 -2.910358 33.619764 -12.228030 -20.253348 11.306798 -49.612797 0.472148 0.000000 0.000000 0.000000 -10.273487 25.222306 0.750225 -10.047370 16.662591 9.038649 6.186276 -5.873010 11.564582 0.000000 0.000000 0.000000 7.317206 7.164696 0.677862 -1.240794 27.845128 1.388618 -2.191100 23.225114 -6.400902 0.000000 0.000000 0.000000 -8.160103 -31.496748 13.741592 0.092946 0.118934 -2.854031 5.528737 -5.349044 3.204482 0.000000 0.000000 0.000000 
